<svg width="54" height="33" viewBox="0 0 54 33" fill="none" xmlns="http://www.w3.org/2000/svg">
<path d="M12.791 4.99116L13.154 5.96943H14.1974H46.4265C48.0568 5.96943 49.321 6.34325 50.3034 7.00529C51.2144 7.61921 51.5211 8.21808 51.5555 8.82011L45.8193 17.0177L45.745 17.1239L45.69 17.2412C45.459 17.7342 44.9824 18.2418 44.0565 18.6957C43.1397 19.1449 42.1076 19.3806 40.9341 19.3806H18.7571H16.683L17.3326 21.3504L17.5398 21.9789L17.6156 22.2086L17.7598 22.4029C18.5576 23.4782 19.7932 23.8471 21.037 23.8471H41.9704C42.0082 23.8471 42.0447 23.8475 42.0799 23.8483C42.0449 23.8494 42.0084 23.85 41.9704 23.85H21.037C19.8019 23.85 18.7042 23.5942 17.7187 23.1009C16.7821 22.632 16.279 22.0992 16.0262 21.557L10.9805 3.79264C10.7611 2.97443 10.2317 2.34955 9.50139 1.96927C8.82352 1.61628 8.03481 1.5029 7.25414 1.5029H2.17624C2.14632 1.5029 2.11748 1.5024 2.08967 1.50145C2.11748 1.5005 2.14632 1.5 2.17624 1.5H7.25414C8.7067 1.5 9.87832 1.79451 10.8235 2.32228C11.7817 2.85727 12.2554 3.46086 12.4589 4.09193L12.4689 4.12277L12.4802 4.15314L12.791 4.99116ZM44.5483 17.257L44.5546 17.2359L49.8409 9.50628L50.2271 8.94147L50.0538 8.27952C49.8443 7.47938 49.343 6.8459 48.6216 6.45232C47.9549 6.08861 47.1826 5.97232 46.4265 5.97232H15.0264H13.0509L13.5816 7.87524L16.4832 18.2806L16.7891 19.3777H17.9281H40.9341C41.6703 19.3777 42.4152 19.2784 43.0614 18.9674C43.7605 18.6309 44.3109 18.0569 44.5483 17.257ZM25.0294 29.8195C25.0294 30.0354 24.9595 30.3257 24.3958 30.7055C23.8247 31.0904 23.0772 31.3224 22.0733 31.3224C21.158 31.3224 20.4395 31.0998 19.8545 30.7055C19.2908 30.3257 19.2208 30.0354 19.2208 29.8195C19.2208 29.6035 19.2908 29.3133 19.8545 28.9334C20.4395 28.5392 21.158 28.3166 22.0733 28.3166C23.0772 28.3166 23.8247 28.5486 24.3958 28.9334C24.9595 29.3133 25.0294 29.6035 25.0294 29.8195ZM42.7502 29.8195C42.7502 30.0355 42.6803 30.3257 42.1166 30.7055C41.5455 31.0904 40.798 31.3224 39.7941 31.3224C38.7902 31.3224 38.0428 31.0904 37.4716 30.7055C36.908 30.3257 36.838 30.0355 36.838 29.8195C36.838 29.6035 36.908 29.3133 37.4717 28.9334C38.0428 28.5486 38.7902 28.3166 39.7941 28.3166C40.798 28.3166 41.5455 28.5486 42.1166 28.9334C42.6803 29.3133 42.7502 29.6035 42.7502 29.8195Z" stroke="#FEBB41" stroke-width="3"/>
</svg>
